<?xml version="1.0" encoding="UTF-8" standalone="no"?>
<svg
   class="MuiSvgIcon-root MuiSvgIcon-fontSizeMedium css-1phnduy"
   focusable="false"
   aria-hidden="true"
   viewBox="0 0 22.000001 22"
   version="1.1"
   id="svg1"
   sodipodi:docname="construction.svg"
   width="22"
   height="22"
   inkscape:version="1.4.2 (f4327f4, 2025-05-13)"
   xmlns:inkscape="http://www.inkscape.org/namespaces/inkscape"
   xmlns:sodipodi="http://sodipodi.sourceforge.net/DTD/sodipodi-0.dtd"
   xmlns="http://www.w3.org/2000/svg"
   xmlns:svg="http://www.w3.org/2000/svg">
  <defs
     id="defs1">
    <inkscape:path-effect
       effect="fillet_chamfer"
       id="path-effect2"
       is_visible="true"
       lpeversion="1"
       nodesatellites_param="F,0,0,1,0,0.5,0,1 @ F,0,0,1,0,0.5,0,1 @ F,0,0,1,0,1.5,0,1 @ F,0,0,1,0,1.5,0,1 | F,0,0,1,0,0,0,1 @ F,0,0,1,0,0,0,1 @ F,0,0,1,0,0.5,0,1 @ F,0,0,1,0,0.5,0,1 @ F,0,0,1,0,0.5,0,1 @ F,0,0,1,0,0.5,0,1 @ F,0,0,1,0,0,0,1 @ F,0,0,1,0,0,0,1 @ F,0,0,1,0,1.2,0,1 @ F,0,0,1,0,0,0,1 @ F,0,0,1,0,0.5,0,1 @ F,0,0,1,0,0.5,0,1 @ F,0,0,1,0,0.5,0,1 @ F,0,0,1,0,0.5,0,1 @ F,0,0,1,0,0,0,1 @ F,0,0,1,0,0.5,0,1 @ F,0,0,1,0,0.5,0,1 @ F,0,0,1,0,0.5,0,1 @ F,0,0,1,0,0.5,0,1 @ F,0,0,1,0,0.5,0,1 @ F,0,0,1,0,0.5,0,1 @ F,0,0,1,0,0.5,0,1 @ F,0,0,1,0,0.5,0,1 @ F,0,0,1,0,0.5,0,1 @ F,0,0,1,0,0,0,1 @ F,0,0,1,0,1.5,0,1 @ F,0,0,1,0,1.5,0,1 @ F,0,0,1,0,1.2,0,1 @ F,0,0,1,0,0,0,1"
       radius="0"
       unit="px"
       method="auto"
       mode="F"
       chamfer_steps="1"
       flexible="false"
       use_knot_distance="true"
       apply_no_radius="true"
       apply_with_radius="true"
       only_selected="false"
       hide_knots="false" />
    <inkscape:path-effect
       effect="fillet_chamfer"
       id="path-effect1"
       is_visible="true"
       lpeversion="1"
       nodesatellites_param="F,0,0,1,0,1,0,1 @ F,0,0,1,0,1,0,1 @ F,0,0,1,0,1,0,1 @ F,0,0,1,0,1,0,1 | F,0,0,1,0,0,0,1 @ F,0,0,1,0,0,0,1 @ F,0,0,1,0,0,0,1 @ F,0,0,1,0,0,0,1 @ F,0,0,1,0,0,0,1 @ F,0,0,1,0,0,0,1 @ F,0,0,1,0,0,0,1 @ F,0,0,1,0,0,0,1 @ F,0,0,1,0,0,0,1 @ F,0,0,1,0,0,0,1 @ F,0,0,1,0,0,0,1 @ F,0,0,1,0,0,0,1 @ F,0,0,1,0,0,0,1 @ F,0,0,1,0,0,0,1 @ F,0,0,1,0,0,0,1 @ F,0,0,1,0,0,0,1 @ F,0,0,1,0,0,0,1 @ F,0,0,1,0,0,0,1 @ F,0,0,1,0,0,0,1 @ F,0,0,1,0,0,0,1 @ F,0,0,1,0,0,0,1 @ F,0,0,1,0,0,0,1 @ F,0,0,1,0,0,0,1 @ F,0,0,1,0,0,0,1 @ F,0,0,1,0,0,0,1 @ F,0,0,1,0,0,0,1 @ F,0,0,1,0,0,0,1 @ F,0,0,1,0,0,0,1 @ F,0,0,1,0,0,0,1"
       radius="0"
       unit="px"
       method="auto"
       mode="F"
       chamfer_steps="1"
       flexible="false"
       use_knot_distance="true"
       apply_no_radius="true"
       apply_with_radius="true"
       only_selected="false"
       hide_knots="false" />
  </defs>
  <sodipodi:namedview
     id="namedview1"
     pagecolor="#000000"
     bordercolor="#000000"
     borderopacity="0.25"
     inkscape:showpageshadow="2"
     inkscape:pageopacity="0.0"
     inkscape:pagecheckerboard="0"
     inkscape:deskcolor="#d1d1d1"
     inkscape:zoom="22.627417"
     inkscape:cx="14.009553"
     inkscape:cy="4.7508737"
     inkscape:window-width="1920"
     inkscape:window-height="1009"
     inkscape:window-x="1912"
     inkscape:window-y="-8"
     inkscape:window-maximized="1"
     inkscape:current-layer="svg1" />
  <path
     d="m 12.036153,12.205847 1.414194,-1.414194 a 0.50000417,0.50000417 179.99976 0 1 0.707109,-3e-6 l 4.582075,4.581999 a 1.4999875,1.4999875 89.999761 0 1 9e-6,2.121311 1.4999981,1.4999981 3.1058813e-4 0 1 -2.121309,-1.1e-5 L 12.036156,12.91295 a 0.49999583,0.49999583 89.999761 0 1 -3e-6,-0.707103 z M 15.4,7.3875 c 1.93,0 3.5,-1.57 3.5,-3.5 0,-0.40253 -0.07707,-0.7857937 -0.207797,-1.1431053 -0.09481,-0.2591424 -0.360494,-0.2986035 -0.555756,-0.1033413 l -1.992894,1.9928932 a 0.5,0.5 180 0 1 -0.707106,0 L 14.653553,3.8510534 a 0.5,0.5 90 0 1 0,-0.7071068 L 16.646447,1.1510534 C 16.841709,0.95579124 16.802243,0.69010821 16.543094,0.59529289 16.185785,0.46456391 15.802526,0.3875 15.4,0.3875 c -1.93,0 -3.5,1.57 -3.5,3.5 0,0.011138 3.55e-4,0.022327 0.001,0.033561 0.03849,0.6315569 -0.170938,1.5063379 -0.639567,1.974967 L 10.26,6.8975 8.8335534,5.4710534 a 0.5,0.5 90 0 1 0,-0.7071068 l 0.00289,-0.00289 a 0.5,0.5 90 0 0 0,-0.7071068 L 8.1335534,3.3510534 a 0.5,0.5 90 0 1 0,-0.7071068 L 9.5464466,1.2310534 C 9.7417088,1.0357912 9.7434803,0.71485559 9.5189181,0.55469433 8.3482904,-0.28021563 6.7101137,-0.17261374 5.66,0.8775 L 2.4735534,4.0639466 a 0.5,0.5 90 0 0 0,0.7071068 L 3.1764466,5.4739466 A 0.20710678,0.20710678 112.5 0 1 3.03,5.8275 H 1.21 A 1.2071068,1.2071068 157.5 0 0 0.35644661,6.1810534 l -0.002893,0.00289 a 0.5,0.5 90 0 0 0,0.7071068 L 3.1864466,9.7239466 a 0.5,0.5 0 0 0 0.7071068,0 l 0.00289,-0.00289 A 1.2071068,1.2071068 112.5 0 0 4.25,8.8675 v -1.83 A 0.20710678,0.20710678 157.5 0 1 4.6035534,6.8910534 l 0.7028932,0.7028932 a 0.5,0.5 0 0 0 0.7071068,0 l 0.00289,-0.00289 a 0.5,0.5 0 0 1 0.7071068,0 L 8.15,9.0175 1.8006602,15.36684 a 1.5,1.5 90 0 0 0,2.12132 1.4997257,1.4997257 179.97692 0 0 2.1204661,-8.54e-4 L 13.391099,8.0256551 c 0.468835,-0.4684231 1.343909,-0.6773104 1.975668,-0.6391744 0.01112,6.716e-4 0.0222,0.00102 0.03323,0.00102"
     id="path1"
     style="fill:#ffffff"
     sodipodi:nodetypes="ccccccsccccssscccccsccccccccccccsc"
     inkscape:path-effect="#path-effect2"
     inkscape:original-d="m 11.6826,12.5594 2.1213,-2.1213 5.9963,5.9962 -2.1213,2.1213 z M 15.4,7.3875 c 1.93,0 3.5,-1.57 3.5,-3.5 0,-0.58 -0.16,-1.12 -0.41,-1.6 l -2.7,2.7 -1.49,-1.49 2.7,-2.7 c -0.48,-0.25 -1.02,-0.41 -1.6,-0.41 -1.93,0 -3.5,1.57 -3.5,3.5 0,0.41 0.480647,0.8893526 0.21,1.16 l -1.85,1.85 -1.78,-1.78 0.71,-0.71 -1.41,-1.41 2.12,-2.12 c -1.17,-1.17 -3.07,-1.17 -4.24,0 l -3.54,3.54 1.41,1.41 H 0.71 l -0.71,0.71 3.54,3.54 0.71,-0.71 v -2.83 l 1.41,1.41 0.71,-0.71 1.78,1.78 -7.41,7.41 2.12,2.12 11.38,-11.37 c 0.270766,-0.2705284 0.75,0.21 1.16,0.21"
     transform="translate(1.3070086,2.0328554)" />
</svg>
