<?xml version="1.0" encoding="UTF-8" standalone="no"?>
<!-- Uploaded to: SVG Repo, www.svgrepo.com, Generator: SVG Repo Mixer Tools -->

<svg
   width="750"
   height="650"
   viewBox="0 0 30 26"
   fill="none"
   version="1.1"
   id="svg2"
   sodipodi:docname="react.svg"
   inkscape:version="1.4.2 (f4327f4, 2025-05-13)"
   xmlns:inkscape="http://www.inkscape.org/namespaces/inkscape"
   xmlns:sodipodi="http://sodipodi.sourceforge.net/DTD/sodipodi-0.dtd"
   xmlns="http://www.w3.org/2000/svg"
   xmlns:svg="http://www.w3.org/2000/svg">
  <defs
     id="defs2" />
  <sodipodi:namedview
     id="namedview2"
     pagecolor="#000000"
     bordercolor="#000000"
     borderopacity="0.25"
     inkscape:showpageshadow="2"
     inkscape:pageopacity="0.0"
     inkscape:pagecheckerboard="0"
     inkscape:deskcolor="#d1d1d1"
     inkscape:zoom="1.03625"
     inkscape:cx="374.90953"
     inkscape:cy="324.72859"
     inkscape:window-width="1920"
     inkscape:window-height="1009"
     inkscape:window-x="-8"
     inkscape:window-y="-8"
     inkscape:window-maximized="1"
     inkscape:current-layer="svg2" />
  <path
     d="m 17.6789,12.975899 c 0,-1.4344 -1.1993,-2.5974 -2.6789,-2.5974 -1.4794,0 -2.6789,1.163 -2.6789,2.5974 0,1.4346 1.1995,2.5975 2.6789,2.5975 1.4796,0 2.6789,-1.1629 2.6789,-2.5975 z"
     fill="#53C1DE"
     id="path1"
     style="fill:#ffffff" />
  <path
     fill-rule="evenodd"
     clip-rule="evenodd"
     d="m 23.7004,8.1536988 c 0.5657,-2.22892 1.2768,-6.36222 -1.23,-7.76353996 C 19.9753,-1.0050512 16.7284,1.6684288 15.0139,3.2731788 13.3044,1.6844188 9.9663,-0.97763116 7.46163,0.42813884 4.96751,1.8280288 5.73664,5.8927988 6.3149,8.1356988 3.98831,8.7763988 0,10.156399 0,12.975899 c 0,2.8115 3.98416,4.3129 6.29698,4.953 -0.5804,2.2553 -1.31102,6.262 1.18629,7.6588 2.51403,1.4055 5.84173,-1.1932 7.57213,-2.8155 1.7255,1.6142 4.9412,4.2299 7.4368,2.8292 2.5034,-1.4051 1.8514,-5.483 1.2731,-7.7389 2.242,-0.6415 6.2347,-2.1102 6.2347,-4.8866 0,-2.7924 -4.0097,-4.1836002 -6.2996,-4.8222002 z m -0.2842,8.5133002 c -0.3797,-1.1654 -0.8922,-2.4047 -1.5191,-3.6849 0.5984,-1.25 1.091,-2.4733 1.4601,-3.6312002 1.6787,0.4719 5.3613,1.5504002 5.3613,3.6250002 0,2.0941 -3.5339,3.1828 -5.3023,3.6911 z m -1.5662,7.859 c -1.862,1.045 -4.6279,-1.4564 -5.9022,-2.6451 0.8454,-0.8965 1.6902,-1.9387 2.5147,-3.096 1.4504,-0.1247 2.8205,-0.3287 4.0631,-0.6072 0.407,1.5957 1.1946,5.2986 -0.6756,6.3483 z m -13.72638,-0.0149 c -1.86219,-1.0411 -1.01104,-4.6165 -0.58405,-6.2778 1.22877,0.2636 2.58903,0.4532 4.04283,0.5675 0.8299,1.1324 1.6992,2.1733 2.5752,3.0849 -1.0823,1.0151 -4.1631,3.6713 -6.03398,2.6254 z m -6.84213,-11.5352 c 0,-2.1019 3.66058,-3.1726002 5.37755,-3.6433002 0.37547,1.1839002 0.86791,2.4218002 1.46219,3.6736002 -0.60198,1.2704 -1.10146,2.5279 -1.48038,3.7258 -1.63716,-0.4544 -5.35936,-1.6529 -5.35936,-3.7561 z M 8.1037,1.5035388 c 1.8698,-1.04937996 4.771,1.50629 6.0122,2.65659 -0.8715,0.90741 -1.7328,1.94047 -2.5556,3.06637 -1.4109,0.1268 -2.76155,0.3304 -4.00321,0.6032 -0.46584,-1.80899 -1.32117,-5.27791 0.54661,-6.32616 z m 11.2756,7.07356 c 0.9572,0.1171 1.8743,0.2729 2.7354,0.4635 -0.2585,0.8034 -0.5807,1.6435002 -0.9602,2.5047002 -0.5501,-1.012 -1.1406,-2.0037002 -1.7752,-2.9682002 z m -4.365,-3.529 c 0.5911,0.62087 1.1831,1.3142 1.7655,2.0664 -1.1813,-0.0542 -2.3645,-0.0544 -3.5458,-8e-4 0.5829,-0.74522 1.18,-1.43752 1.7803,-2.0656 z M 8.8565,11.544399 C 8.48329,10.686199 8.16398,9.8423988 7.90322,9.0274988 c 0.85596,-0.1857 1.76878,-0.3375 2.71978,-0.4527 -0.6364,0.9624 -1.2259,1.9537002 -1.7665,2.9696002 z m 1.7938,5.9213 c -0.9824,-0.1063 -1.90904,-0.2504 -2.76474,-0.431 0.26488,-0.8292 0.59122,-1.6912 0.9724,-2.5679 0.54804,1.0265 1.14654,2.0274 1.79234,2.9989 z m 4.3995,3.5258 c -0.6074,-0.6355 -1.2133,-1.3384 -1.805,-2.0944 1.188,0.0452 2.3783,0.0453 3.5662,-0.0061 -0.5842,0.7698 -1.1741,1.4737 -1.7612,2.1005 z m 6.1169,-6.5693 c 0.401,0.8862 0.739,1.7435 1.0075,2.5587 -0.8699,0.1925 -1.809,0.3475 -2.7985,0.4626 0.6393,-0.9828 1.2392,-1.9899 1.791,-3.0213 z m -3.4194,3.1719 c -1.8172,0.1259 -3.6457,0.1245 -5.4635,0.0103 -1.0329,-1.4629 -1.9524,-3.0014 -2.7461,-4.5986 0.7899,-1.5939 1.7027,-3.1294002 2.7307,-4.5900002 1.8191,-0.1333 3.6494,-0.1337 5.4685,8e-4 1.0192,1.4605 1.9306,2.9920002 2.7388,4.5715002 -0.7986,1.5931 -1.7162,3.1317 -2.7284,4.606 z m 4.083,-16.1275002 c 1.8703,1.04594 1.0378,4.76066 0.6292,6.376 -1.2446,-0.2785 -2.5962,-0.4857 -4.0112,-0.6145 -0.8244,-1.13806 -1.6785,-2.17292 -2.5359,-3.06861 1.2571,-1.17508 4.0657,-3.72859996 5.9179,-2.69289 z"
     fill="#53C1DE"
     id="path2"
     style="fill:#ffffff" />
</svg>
