<?xml version="1.0" encoding="UTF-8" standalone="no"?>
<svg
   class="express-logo"
   viewBox="0 0 1120.322 167.36259"
   width="90"
   height="20.083511"
   version="1.1"
   id="svg1"
   sodipodi:docname="express.svg"
   inkscape:version="1.4.2 (f4327f4, 2025-05-13)"
   xmlns:inkscape="http://www.inkscape.org/namespaces/inkscape"
   xmlns:sodipodi="http://sodipodi.sourceforge.net/DTD/sodipodi-0.dtd"
   xmlns="http://www.w3.org/2000/svg"
   xmlns:svg="http://www.w3.org/2000/svg">
  <defs
     id="defs1" />
  <sodipodi:namedview
     id="namedview1"
     pagecolor="#050505"
     bordercolor="#000000"
     borderopacity="0.25"
     inkscape:showpageshadow="2"
     inkscape:pageopacity="0.0"
     inkscape:pagecheckerboard="0"
     inkscape:deskcolor="#d1d1d1"
     inkscape:zoom="7.0632111"
     inkscape:cx="45.305173"
     inkscape:cy="-0.63710399"
     inkscape:window-width="1920"
     inkscape:window-height="1009"
     inkscape:window-x="-8"
     inkscape:window-y="-8"
     inkscape:window-maximized="1"
     inkscape:current-layer="svg1" />
  <path
     d="M 347.47162,208.6813 V -36.428243 h 13.29516 V 2.1277175 a 50.415241,50.415241 0 0 0 4.33954,-5.43506 c 11.10412,-23.0378505 34.52487,-37.5774405 60.09412,-37.2902605 30.31296,-0.90408 54.94623,10.31704 69.422,37.2902605 a 119.86915,119.86915 0 0 1 2.89302,109.8818125 c -13.4866,30.22789 -46.79895,45.25673 -82.46189,39.73658 a 66.688515,66.688515 0 0 1 -53.22317,-35.1205 v 97.48011 z m 13.29516,-158.403843 2.97812,28.781356 c 5.25425,32.759267 24.62263,52.117027 55.03132,55.754587 A 62.540425,62.540425 0 0 0 487.47496,95.076823 C 499.30233,66.891083 498.43017,34.982707 485.13501,7.4564175 A 61.26409,61.26409 0 0 0 420.595,-28.206523 a 59.668671,59.668671 0 0 0 -53.30827,44.07611 304.40595,304.40595 0 0 0 -6.51995,34.39724 z m 420.10574,33.312346 a 71.687494,71.687494 0 0 1 -70.06017,63.359417 c -55.75458,2.80794 -81.91945,-34.21643 -86.07817,-76.941747 a 123.27271,123.27271 0 0 1 10.85948,-67.8903955 75.729222,75.729222 0 0 1 78.83497,-42.2679705 72.432023,72.432023 0 0 1 64.26348,55.12705 371.94535,371.94535 0 0 1 6.24341,40.73636 H 638.50796 c -2.71221,38.736776 18.10269,69.879363 47.6073,77.388463 36.74782,9.04071 68.1563,-6.88157 79.55823,-41.821257 2.5314,-8.96625 7.14748,-10.23195 15.29475,-7.68992 z M 638.4016,43.310797 h 130.97326 c -0.81898,-41.2681695 -26.51586,-71.26205 -61.37045,-71.60241 -39.35367,-0.63816 -67.89039,28.15383046 -69.60281,71.60241 z m 169.53986,41.183076 h 12.83781 a 51.478853,51.478853 0 0 0 30.22787,44.352657 79.026422,79.026422 0 0 0 68.61365,-1.80814 30.844768,30.844768 0 0 0 18.10269,-30.323607 27.973013,27.973013 0 0 0 -18.82595,-27.97301 c -14.12477,-5.25425 -29.14298,-8.14727 -43.53366,-12.763346 a 319.0838,319.0838 0 0 1 -43.81021,-16.01801 c -23.18675,-11.31684 -24.62263,-55.39295 1.62733,-69.34755 a 92.427941,92.427941 0 0 1 88.34367,-1.36142 c 16.95398,9.35979 26.32441,28.2601905 23.53775,47.43712 h -11.00839 c 0,-0.5318 -0.9998,-0.99979 -0.9998,-1.54223 -1.36142,-35.09922 -30.86604,-46.07571 -62.54043,-42.99123 -9.57251,1.06361 -18.64513,3.95664 -27.15403,8.23236 A 27.122123,27.122123 0 0 0 827.61829,7.5415075 27.122123,27.122123 0 0 0 845.72098,33.068207 c 13.82697,5.07343 28.50482,8.32809 42.81041,12.306 l 34.56741,9.04071 a 40.842727,40.842727 0 0 1 28.05811,36.843536 c 2.76539,18.560037 -6.70076,36.801007 -23.44203,45.256727 -30.22787,17.10289 -80.01558,12.58254 -102.1919,-9.04071 C 814.17423,116.0619 807.84574,100.56506 807.97337,84.483233 Z M 1114.0492,16.699207 h -12.0401 c 0,-1.62733 -0.6382,-3.19084 -0.819,-4.43526 a 39.353669,39.353669 0 0 0 -32.0466,-37.83271 79.026422,79.026422 0 0 0 -50.7769,2.44631 30.844768,30.844768 0 0 0 -22.35715,29.4195305 28.398458,28.398458 0 0 0 21.71895,28.6005395 l 55.0313,14.12478 a 153.05386,153.05386 0 0 1 17.5497,5.33934 c 17.5496,6.381666 29.462,22.676216 29.9938,41.300076 a 45.203539,45.203539 0 0 1 -27.6539,42.969957 100.72412,100.72412 0 0 1 -81.4621,0.81898 56.477833,56.477833 0 0 1 -34.0356,-54.850517 h 11.76356 c 4.42463,21.325437 19.07054,39.087777 39.16224,47.490317 20.0916,8.40254 43.0337,6.33913 61.3066,-5.48824 a 32.333825,32.333825 0 0 0 17.3794,-30.227877 27.973013,27.973013 0 0 0 -19.1024,-27.7922 c -14.1248,-5.25425 -29.143,-8.05155 -43.5337,-12.763356 a 320.67922,320.67922 0 0 1 -44.0761,-15.83719 c -22.6337,-11.13602 -24.44184,-54.8505 1.3614,-68.79447 a 91.151606,91.151606 0 0 1 89.7902,-0.99979 47.330764,47.330764 0 0 1 22.7188,46.43733 z M 325.59311,142.52459 a 20.740447,20.740447 0 0 1 -25.70752,-9.7746 l -46.79895,-64.720837 -6.78585,-9.04071 -54.30807,73.857277 a 19.889557,19.889557 0 0 1 -24.44182,9.59378 l 69.96445,-93.863823 -65.0931,-84.81247 c 9.6576,-3.48865 20.42136,0.29781 25.79261,9.04071 l 48.50074,65.51854 48.78791,-65.26328 a 19.464112,19.464112 0 0 1 24.261,-9.05134 l -25.2608,33.5144305 -34.21642,44.5334695 a 9.040708,9.040708 0 0 0 0,13.48661 l 65.16755,86.982243 z M 622.66013,-37.140863 v 12.76335 a 65.624902,65.624902 0 0 0 -69.87935,67.79467 V 142.98195 H 539.83661 V -36.343153 h 12.76336 V 0.40465746 C 568.25634,-26.398383 592.42162,-36.343153 622.74522,-37.066413 Z M 0.021272,47.405707 5.722236,19.251877 c 15.656379,-55.66949 79.473139,-78.83497 123.379074,-44.35265 25.70751,20.1873705 32.1211,48.78792 30.86604,81.01538 H 15.135208 c -2.339948,57.562713 39.194127,92.321583 92.321582,74.580523 17.50706,-6.38167 30.68522,-20.9319 35.02476,-39.013317 2.80794,-9.04071 7.44529,-10.59359 15.93292,-7.9771 A 73.495636,73.495636 0 0 1 123.29398,137.18526 85.089014,85.089014 0 0 1 24.175916,124.51763 C 11.242386,109.97803 3.435469,91.598813 1.914503,72.187873 c 0,-3.19084 -1.063613,-6.16895 -1.808142,-9.0407 Q 0,55.095627 0,47.405707 Z m 15.294751,-3.89282 H 146.28929 C 145.47031,1.7873575 119.13526,-27.812983 84.014765,-28.089523 44.916363,-28.621333 16.94335,0.33020746 15.220297,43.332067 Z"
     id="path1"
     style="fill:#ffffff" />
</svg>
