<?xml version="1.0" encoding="UTF-8" standalone="no"?>
<svg
   height="72"
   viewBox="0 0 72 72"
   width="72"
   version="1.1"
   id="svg2"
   sodipodi:docname="linkedin.svg"
   inkscape:version="1.4.2 (f4327f4, 2025-05-13)"
   xmlns:inkscape="http://www.inkscape.org/namespaces/inkscape"
   xmlns:sodipodi="http://sodipodi.sourceforge.net/DTD/sodipodi-0.dtd"
   xmlns="http://www.w3.org/2000/svg"
   xmlns:svg="http://www.w3.org/2000/svg">
  <defs
     id="defs2" />
  <sodipodi:namedview
     id="namedview2"
     pagecolor="#ffffff"
     bordercolor="#000000"
     borderopacity="0.25"
     inkscape:showpageshadow="2"
     inkscape:pageopacity="0.0"
     inkscape:pagecheckerboard="0"
     inkscape:deskcolor="#d1d1d1"
     inkscape:zoom="11.208333"
     inkscape:cx="35.95539"
     inkscape:cy="36"
     inkscape:window-width="1920"
     inkscape:window-height="1009"
     inkscape:window-x="-8"
     inkscape:window-y="-8"
     inkscape:window-maximized="1"
     inkscape:current-layer="svg2" />
  <g
     fill="none"
     fill-rule="evenodd"
     id="g2">
    <path
       id="path1"
       d="M 8 0 C 3.581722 8.116245e-16 0 3.581722 0 8 L 0 64 C 5.41083e-16 68.418278 3.581722 72 8 72 L 64 72 C 68.418278 72 72 68.418278 72 64 L 72 8 C 72 3.581722 68.418278 -1.1842379e-15 64 0 L 8 0 z M 21.169922 15.173828 C 23.816689 15.173828 25.960938 17.469274 25.960938 20.298828 C 25.960938 23.128383 23.816689 25.421875 21.169922 25.421875 C 18.523157 25.421875 16.378906 23.128383 16.378906 20.298828 C 16.378906 17.469274 18.523157 15.173828 21.169922 15.173828 z M 46.099609 28.208984 C 51.648623 28.208984 55.621094 31.805719 55.621094 39.244141 L 55.621094 56.826172 L 47.558594 56.826172 L 47.558594 42.25 C 47.558594 38.25366 46.126651 36.019531 43.146484 36.019531 C 39.904452 36.019531 38.210937 38.344454 38.210938 42.25 L 38.210938 56.826172 L 30.441406 56.826172 L 30.441406 29.058594 L 38.210938 29.058594 L 38.210938 32.798828 C 38.210938 32.798828 40.548042 28.208984 46.099609 28.208984 z M 17.158203 29.058594 L 25.261719 29.058594 L 25.261719 56.826172 L 17.158203 56.826172 L 17.158203 29.058594 z "
       style="fill:#ffffff" />
  </g>
</svg>
